<?xml version="1.0" encoding="utf-8"?>
<!-- Generator: Adobe Illustrator 23.0.6, SVG Export Plug-In . SVG Version: 6.00 Build 0)  -->
<svg class="logo" version="1.1" id="Capa_1" xmlns="http://www.w3.org/2000/svg"
	xmlns:xlink="http://www.w3.org/1999/xlink" x="0px" y="0px" viewBox="0 0 1000 1000"
	style="enable-background:new 0 0 1000 1000;" xml:space="preserve">
	<style type="text/css">
		.st1 {
			fill: #4EBEE6;
		}
	</style>
	<g>
		<path class="st1"
			d="M364.47,790.14c13.01,16.34,32.02,22.12,50.33,24.57c31.69,4.24,63.93,1.1,90.76-17.76
		c37.78-26.56,80.75-35.19,124.69-41.54c20.01-2.89,39.5-6.84,57.21-16.67c18.06-10.02,24.55-25.08,16.08-43.07
		c-10.68-22.7-26.08-41.79-54.49-42.14c-34.22-0.42-68.45-0.1-103.36-0.1c2.39-10.71,9.38-13.09,15.15-16.4
		c52.87-30.28,105.84-60.4,158.77-90.59c2.49-1.42,4.69-3.61,7.34-4.41c38.71-11.59,79.45-13.77,117.97-27.49
		c19.17-6.83,29.24,13.4,39.71,26.61c4.95-0.66,9.26-0.72,13.29-1.84c36.85-10.22,55.43-1.77,64.03,33.2
		c2.91,11.81,6.91,19.77,15.33,28.47c25.58,26.45,23.73,50.1-5.34,72.01c-25.11,18.92-51.52,36.14-77.62,53.72
		c-69.97,47.13-137.69,97.6-210.11,141.11c-29.5,17.73-60.43,32.04-93.37,42.14c-42.66,13.07-84.74,6.36-126.54-3.74
		c-30.5-7.36-60.83-15.55-90.88-24.56c-29.64-8.89-55.37-4.4-80.65,14.23c-33.36,24.58-69.11,45.9-102.76,70.12
		c-21.8,15.69-44.63,18.32-69.13,11.29c-20.59-5.9-40.73-13.26-59.55-23.92C21.79,931.01-6.61,876.51,9.47,828.84
		C29.66,769,55.37,712,85.57,656.76c5.8-10.6,14.76-16.96,24.2-23.59c65.04-45.71,135.5-56.21,211.94-35.5
		c51.16,13.86,99.47,34.75,146.75,57.72c24.16,11.74,47.44,16.91,74,15.33c31.37-1.87,62.96-1.1,94.41-0.15
		c21.62,0.65,37.82,10.79,46.56,31.87c5.55,13.38,1.77,22.8-10.56,27.91c-13.19,5.47-27.26,8-41.75,8.99
		c-47.64,3.26-91.84,17.01-133.93,40.36c-34.51,19.15-71.88,27.74-110.91,10.4C380.55,787.57,374.42,780.54,364.47,790.14z" />
		<path class="st1" d="M606.22,275.25c-15.2-45.06-30.1-90.92-46.32-136.31c-5.49-15.36-4.73-40.91-23.62-41.63
		c-24.63-0.94-20.61,27.53-25.59,43.3c-17.59,55.69-32.05,112.36-48.13,170.2c-14.17-2.68-18.3-10.43-22.4-21.96
		c-9.38-26.38-9-55.36-24.81-80.22c-14.91-23.45-28.72-27.35-37.97-2.53c-16.15,43.3-46.73,45.64-84.41,43.81
		c-43.82-2.13-50.47-7.2-52.49-51.24c-2.49-54,14.04-100.23,49.82-141.57c47.65-55.05,165.95-75.86,225.11-2.53
		c3.58,4.43,7.39,8.68,9.14,10.72c8.25,2.64,11.01-0.92,13.28-4.14c63.72-90.46,228.24-68.63,274.62,62.84
		c18.7,53,11.77,99.97-18.96,145.55c-28.26,41.91-64.39,76.44-101.47,109.98c-41.42,37.47-86.24,70.93-132.94,101.33
		c-36.47,23.74-26.15,25.73-62.89-0.55c-61.66-44.12-122.97-89.27-174.4-145.46c-20.37-22.26-42.08-31.51-71.45-28.23
		c-16.96,1.89-34.32,0.42-51.5,0.2c-10.88-0.14-21.13-3.5-21.29-15.99c-0.16-12.16,9.12-16.66,20.51-16.68
		c24.34-0.05,48.68-0.11,73.01-0.15c15.75-0.02,31.5-0.01,47.24-0.02c43.61-0.03,43.61-0.03,73.44-29.9
		c10.83,4.03,11.92,13.57,14.51,23.25c9.53,35.54,19.63,70.95,30.55,106.08c2.98,9.58,1.39,25.12,18.91,23.27
		c12.29-1.29,15.21-11.45,18.04-21.18c11.55-39.75,23.1-79.49,34.51-119.28c6.29-21.95,12.34-43.97,18.38-66
		c1.95-7.1,4.54-13.53,13.42-16.68c14.34,43.19,28.64,86.41,43.07,129.58c2.7,8.07,5.17,16.38,9.21,23.78
		c4.14,7.58,11.09,7.9,18.03,2.92c12.01-8.64,18.77-21.7,26.07-33.75c9.95-16.44,22.13-24.76,41.97-22.45
		c12.7,1.48,25.76,0.6,38.61-0.08c9.59-0.51,16.22-5.39,15.58-16.14c-0.48-8.15-5.49-13.97-13.26-14.2
		c-24.29-0.72-48.62-0.96-72.9-0.12c-8.93,0.31-14.52,8.03-19.9,15.01C621.59,264.51,619.53,274.34,606.22,275.25z" />
	</g>
</svg>