<svg xmlns="http://www.w3.org/2000/svg" version="1.1" xmlns:xlink="http://www.w3.org/1999/xlink" xmlns:svgjs="http://svgjs.com/svgjs" width="1000" height="1000"><svg version="1.1" id="SvgjsSvg1000" xmlns="http://www.w3.org/2000/svg" xmlns:xlink="http://www.w3.org/1999/xlink" x="0px" y="0px" viewBox="0 0 1000 1000" style="enable-background:new 0 0 1000 1000;" xml:space="preserve">
<style type="text/css">
	.st0{fill:#2F2F2F;}
	.st1{fill:#4EBEE6;}
</style>
<g>
	<path class="st0" d="M364.47,790.14c9.96-9.6,16.08-2.57,21.81-0.02c39.03,17.34,76.4,8.75,110.91-10.4
		c42.09-23.36,86.29-37.11,133.93-40.36c14.48-0.99,28.56-3.52,41.75-8.99c12.33-5.11,16.11-14.53,10.56-27.91
		c-8.74-21.09-24.93-31.22-46.56-31.87c-31.45-0.95-63.05-1.73-94.41,0.15c-26.56,1.59-49.84-3.59-74-15.33
		c-47.27-22.97-95.59-43.86-146.75-57.72c-76.45-20.71-146.9-10.2-211.94,35.5c-9.43,6.63-18.4,12.99-24.2,23.59
		C55.37,712,29.66,769,9.47,828.84C-6.61,876.51,21.79,931.01,61.33,953.4c18.82,10.66,38.97,18.01,59.55,23.92
		c24.5,7.03,47.33,4.4,69.13-11.29c33.65-24.22,69.39-45.54,102.76-70.12c25.28-18.63,51.02-23.12,80.65-14.23
		c30.05,9.01,60.38,17.2,90.88,24.56c41.8,10.09,83.88,16.81,126.54,3.74c32.94-10.1,63.87-24.41,93.37-42.14
		c72.41-43.51,140.13-93.98,210.11-141.11c26.1-17.58,52.51-34.8,77.62-53.72c29.07-21.9,30.92-45.56,5.34-72.01
		c-8.41-8.7-12.42-16.65-15.33-28.47c-8.6-34.97-27.18-43.42-64.03-33.2c-4.02,1.12-8.34,1.18-13.29,1.84
		c-10.47-13.21-20.54-33.44-39.71-26.61c-38.52,13.72-79.27,15.9-117.97,27.49c-2.65,0.79-4.86,2.99-7.34,4.41
		c-52.93,30.18-105.89,60.3-158.77,90.59c-5.77,3.3-12.76,5.69-15.15,16.4c34.91,0,69.14-0.32,103.36,0.1
		c28.4,0.35,43.81,19.44,54.49,42.14c8.46,17.99,1.97,33.05-16.08,43.07c-17.71,9.83-37.2,13.78-57.21,16.67
		c-43.93,6.35-86.91,14.98-124.69,41.54c-26.83,18.86-59.07,22-90.76,17.76C396.48,812.25,377.48,806.48,364.47,790.14z
		 M606.22,275.25c13.31-0.91,15.38-10.75,20.35-17.2c5.37-6.98,10.97-14.7,19.9-15.01c24.27-0.84,48.61-0.6,72.9,0.12
		c7.77,0.23,12.77,6.05,13.26,14.2c0.64,10.75-5.99,15.63-15.58,16.14c-12.85,0.68-25.91,1.56-38.61,0.08
		c-19.84-2.32-32.02,6.01-41.97,22.45c-7.3,12.05-14.05,25.11-26.07,33.75c-6.93,4.98-13.89,4.66-18.03-2.92
		c-4.04-7.4-6.52-15.71-9.21-23.78c-14.44-43.17-28.73-86.39-43.07-129.58c-8.88,3.15-11.48,9.58-13.42,16.68
		c-6.04,22.02-12.09,44.04-18.38,66c-11.4,39.79-22.96,79.53-34.51,119.28c-2.83,9.73-5.75,19.89-18.04,21.18
		c-17.52,1.85-15.93-13.69-18.91-23.27c-10.92-35.13-21.01-70.54-30.55-106.08c-2.6-9.68-3.68-19.22-14.51-23.25
		c-29.83,29.88-29.83,29.88-73.44,29.9c-15.75,0.01-31.5,0-47.24,0.02c-24.34,0.04-48.68,0.1-73.01,0.15
		c-11.39,0.02-20.67,4.52-20.51,16.68c0.16,12.49,10.41,15.85,21.29,15.99c17.18,0.22,34.54,1.7,51.5-0.2
		c29.37-3.28,51.08,5.98,71.45,28.23c51.43,56.19,112.73,101.34,174.4,145.46c36.73,26.28,26.42,24.29,62.89,0.55
		c46.7-30.4,91.52-63.87,132.94-101.33c37.08-33.54,73.21-68.08,101.47-109.98c30.73-45.58,37.66-92.55,18.96-145.55
		C766.07-7.49,601.54-29.31,537.82,61.14c-2.27,3.22-5.02,6.78-13.28,4.14c-1.75-2.05-5.56-6.29-9.14-10.72
		C456.25-18.77,337.95,2.04,290.3,57.09c-35.78,41.34-52.31,87.57-49.82,141.57c2.03,44.04,8.67,49.11,52.49,51.24
		c37.68,1.83,68.26-0.51,84.41-43.81c9.26-24.82,23.06-20.91,37.97,2.53c15.81,24.86,15.43,53.83,24.81,80.22
		c4.1,11.53,8.23,19.27,22.4,21.96c16.08-57.84,30.54-114.51,48.13-170.2c4.98-15.76,0.96-44.24,25.59-43.3
		c18.9,0.72,18.13,26.27,23.62,41.63C576.12,184.33,591.01,230.19,606.22,275.25z"></path>
	<path class="st1" d="M364.47,790.14c13.01,16.34,32.02,22.12,50.33,24.57c31.69,4.24,63.93,1.1,90.76-17.76
		c37.78-26.56,80.75-35.19,124.69-41.54c20.01-2.89,39.5-6.84,57.21-16.67c18.06-10.02,24.55-25.08,16.08-43.07
		c-10.68-22.7-26.08-41.79-54.49-42.14c-34.22-0.42-68.45-0.1-103.36-0.1c2.39-10.71,9.38-13.09,15.15-16.4
		c52.87-30.28,105.84-60.4,158.77-90.59c2.49-1.42,4.69-3.61,7.34-4.41c38.71-11.59,79.45-13.77,117.97-27.49
		c19.17-6.83,29.24,13.4,39.71,26.61c4.95-0.66,9.26-0.72,13.29-1.84c36.85-10.22,55.43-1.77,64.03,33.2
		c2.91,11.81,6.91,19.77,15.33,28.47c25.58,26.45,23.73,50.1-5.34,72.01c-25.11,18.92-51.52,36.14-77.62,53.72
		c-69.97,47.13-137.69,97.6-210.11,141.11c-29.5,17.73-60.43,32.04-93.37,42.14c-42.66,13.07-84.74,6.36-126.54-3.74
		c-30.5-7.36-60.83-15.55-90.88-24.56c-29.64-8.89-55.37-4.4-80.65,14.23c-33.36,24.58-69.11,45.9-102.76,70.12
		c-21.8,15.69-44.63,18.32-69.13,11.29c-20.59-5.9-40.73-13.26-59.55-23.92C21.79,931.01-6.61,876.51,9.47,828.84
		C29.66,769,55.37,712,85.57,656.76c5.8-10.6,14.76-16.96,24.2-23.59c65.04-45.71,135.5-56.21,211.94-35.5
		c51.16,13.86,99.47,34.75,146.75,57.72c24.16,11.74,47.44,16.91,74,15.33c31.37-1.87,62.96-1.1,94.41-0.15
		c21.62,0.65,37.82,10.79,46.56,31.87c5.55,13.38,1.77,22.8-10.56,27.91c-13.19,5.47-27.26,8-41.75,8.99
		c-47.64,3.26-91.84,17.01-133.93,40.36c-34.51,19.15-71.88,27.74-110.91,10.4C380.55,787.57,374.42,780.54,364.47,790.14z"></path>
	<path class="st1" d="M606.22,275.25c-15.2-45.06-30.1-90.92-46.32-136.31c-5.49-15.36-4.73-40.91-23.62-41.63
		c-24.63-0.94-20.61,27.53-25.59,43.3c-17.59,55.69-32.05,112.36-48.13,170.2c-14.17-2.68-18.3-10.43-22.4-21.96
		c-9.38-26.38-9-55.36-24.81-80.22c-14.91-23.45-28.72-27.35-37.97-2.53c-16.15,43.3-46.73,45.64-84.41,43.81
		c-43.82-2.13-50.47-7.2-52.49-51.24c-2.49-54,14.04-100.23,49.82-141.57c47.65-55.05,165.95-75.86,225.11-2.53
		c3.58,4.43,7.39,8.68,9.14,10.72c8.25,2.64,11.01-0.92,13.28-4.14c63.72-90.46,228.24-68.63,274.62,62.84
		c18.7,53,11.77,99.97-18.96,145.55c-28.26,41.91-64.39,76.44-101.47,109.98c-41.42,37.47-86.24,70.93-132.94,101.33
		c-36.47,23.74-26.15,25.73-62.89-0.55c-61.66-44.12-122.97-89.27-174.4-145.46c-20.37-22.26-42.08-31.51-71.45-28.23
		c-16.96,1.89-34.32,0.42-51.5,0.2c-10.88-0.14-21.13-3.5-21.29-15.99c-0.16-12.16,9.12-16.66,20.51-16.68
		c24.34-0.05,48.68-0.11,73.01-0.15c15.75-0.02,31.5-0.01,47.24-0.02c43.61-0.03,43.61-0.03,73.44-29.9
		c10.83,4.03,11.92,13.57,14.51,23.25c9.53,35.54,19.63,70.95,30.55,106.08c2.98,9.58,1.39,25.12,18.91,23.27
		c12.29-1.29,15.21-11.45,18.04-21.18c11.55-39.75,23.1-79.49,34.51-119.28c6.29-21.95,12.34-43.97,18.38-66
		c1.95-7.1,4.54-13.53,13.42-16.68c14.34,43.19,28.64,86.41,43.07,129.58c2.7,8.07,5.17,16.38,9.21,23.78
		c4.14,7.58,11.09,7.9,18.03,2.92c12.01-8.64,18.77-21.7,26.07-33.75c9.95-16.44,22.13-24.76,41.97-22.45
		c12.7,1.48,25.76,0.6,38.61-0.08c9.59-0.51,16.22-5.39,15.58-16.14c-0.48-8.15-5.49-13.97-13.26-14.2
		c-24.29-0.72-48.62-0.96-72.9-0.12c-8.93,0.31-14.52,8.03-19.9,15.01C621.59,264.51,619.53,274.34,606.22,275.25z"></path>
</g>
<g>
</g>
<g>
</g>
<g>
</g>
<g>
</g>
<g>
</g>
<g>
</g>
<g>
</g>
<g>
</g>
<g>
</g>
<g>
</g>
<g>
</g>
</svg><style>@media (prefers-color-scheme: light) { :root { filter: none; } }
</style></svg>